<?xml version="1.0" standalone="no"?>
<!DOCTYPE svg PUBLIC "-//W3C//DTD SVG 20010904//EN"
 "http://www.w3.org/TR/2001/REC-SVG-20010904/DTD/svg10.dtd">
<svg version="1.0" xmlns="http://www.w3.org/2000/svg"
 width="512.000000pt" height="512.000000pt" viewBox="0 0 512.000000 512.000000"
 preserveAspectRatio="xMidYMid meet">

<g transform="translate(0.000000,512.000000) scale(0.100000,-0.100000)"
fill="#000000" stroke="none">
<path d="M2168 4272 c-1170 -892 -2137 -1639 -2150 -1660 -10 -15 -18 -38 -18
-52 0 -14 8 -37 18 -52 13 -21 1176 -919 2130 -1645 111 -84 127 -93 166 -93
51 0 90 32 100 81 3 18 6 230 6 472 l0 440 153 -7 c444 -20 871 -88 1207 -191
504 -155 910 -411 1114 -702 31 -45 67 -85 79 -89 63 -20 118 5 137 62 15 43
7 254 -16 454 -95 835 -485 1425 -1159 1751 -376 182 -804 273 -1292 274
l-223 0 0 461 c0 254 -3 475 -6 493 -10 49 -49 81 -100 81 -39 0 -54 -8 -146
-78z"/>
</g>
</svg>
