<?xml version="1.0" standalone="no"?>
<!DOCTYPE svg PUBLIC "-//W3C//DTD SVG 20010904//EN"
 "http://www.w3.org/TR/2001/REC-SVG-20010904/DTD/svg10.dtd">
<svg version="1.0" xmlns="http://www.w3.org/2000/svg"
 width="100.000000pt" height="100.000000pt" viewBox="0 0 100.000000 100.000000"
 preserveAspectRatio="xMidYMid meet">

<g transform="translate(0.000000,100.000000) scale(0.100000,-0.100000)"
fill="#000000" stroke="none">
<path d="M74 895 c-41 -28 -45 -58 -42 -332 3 -261 3 -261 27 -287 24 -25 28
-26 149 -26 l125 0 78 -75 c43 -41 83 -75 89 -75 6 0 46 34 89 75 l78 75 125
0 c121 0 125 1 149 26 24 26 24 26 27 287 3 284 0 307 -49 332 -42 22 -815 22
-845 0z m809 -78 c16 -11 17 -35 15 -252 l-3 -240 -132 -5 -133 -5 -65 -65
-65 -64 -65 64 -65 65 -133 5 -132 5 -3 240 c-2 217 -1 241 15 252 24 19 742
19 766 0z"/>
<path d="M236 616 c-31 -31 -32 -45 -5 -80 37 -48 109 -25 109 35 0 33 -19 56
-52 64 -21 5 -33 1 -52 -19z"/>
<path d="M455 615 c-30 -29 -31 -45 -4 -79 25 -31 61 -34 89 -6 28 28 25 64
-6 89 -34 27 -50 26 -79 -4z"/>
<path d="M688 629 c-67 -39 -23 -138 50 -115 28 9 47 58 33 85 -11 20 -41 41
-58 41 -4 0 -16 -5 -25 -11z"/>
</g>
</svg>
