<?xml version="1.0" standalone="no"?>
<!DOCTYPE svg PUBLIC "-//W3C//DTD SVG 20010904//EN"
 "http://www.w3.org/TR/2001/REC-SVG-20010904/DTD/svg10.dtd">
<svg version="1.0" xmlns="http://www.w3.org/2000/svg"
 width="500.000000pt" height="500.000000pt" viewBox="0 0 500.000000 500.000000"
 preserveAspectRatio="xMidYMid meet">

<g transform="translate(0.000000,500.000000) scale(0.100000,-0.100000)"
fill="#000000" stroke="none">
<path d="M2462 3808 c-13 -13 -17 -225 -4 -244 15 -24 50 -26 71 -5 18 18 21
33 21 122 0 55 -5 109 -10 120 -12 22 -59 26 -78 7z"/>
<path d="M1993 3689 c-21 -8 -28 -24 -24 -55 1 -13 83 -157 101 -179 31 -38
98 3 80 49 -17 45 -96 169 -115 181 -13 9 -28 10 -42 4z"/>
<path d="M2958 3688 c-9 -7 -40 -53 -68 -103 -43 -74 -51 -94 -43 -115 7 -20
15 -25 43 -25 32 0 36 4 86 90 59 100 64 127 32 149 -27 19 -30 19 -50 4z"/>
<path d="M1201 3564 c-65 -17 -103 -43 -133 -92 -22 -36 -23 -45 -28 -335 l-5
-299 -28 -24 c-22 -18 -40 -24 -78 -24 l-50 0 3 -97 3 -98 57 -5 c31 -3 62
-10 68 -16 23 -23 30 -96 30 -345 0 -251 0 -256 25 -305 13 -27 40 -59 58 -72
43 -29 151 -52 245 -52 l72 0 0 94 0 93 -49 6 c-60 7 -106 29 -123 60 -9 15
-15 95 -18 267 -6 282 -12 305 -90 349 l-43 24 29 15 c92 46 104 90 104 371 0
152 4 223 13 240 20 41 62 64 122 69 l55 4 0 94 0 94 -92 -1 c-51 0 -117 -7
-147 -15z"/>
<path d="M3560 3486 l0 -94 55 -4 c60 -5 102 -28 122 -69 9 -17 13 -87 13
-231 0 -285 14 -339 101 -377 l38 -17 -44 -22 c-31 -15 -51 -34 -67 -64 -21
-40 -23 -58 -28 -288 -3 -172 -9 -252 -18 -267 -17 -31 -63 -53 -123 -60 l-49
-6 0 -93 0 -94 73 0 c93 0 201 23 244 52 18 13 45 45 58 72 25 49 25 54 25
305 0 249 7 322 30 345 6 6 37 13 68 16 l57 5 3 98 3 97 -50 0 c-38 0 -56 6
-78 24 l-28 24 -5 299 c-4 258 -7 302 -23 330 -40 75 -138 113 -289 113 l-88
0 0 -94z"/>
<path d="M2330 3414 c-232 -62 -420 -253 -474 -484 -32 -135 -13 -328 45 -442
41 -82 110 -168 179 -223 37 -31 72 -63 76 -73 4 -9 10 -108 13 -219 l6 -201
31 -39 c17 -21 48 -48 70 -61 37 -21 47 -22 226 -20 l186 3 43 30 c25 18 53
50 67 77 22 44 24 56 24 225 0 98 4 188 9 200 4 11 40 47 78 78 111 88 191
208 227 343 20 76 20 249 0 327 -63 235 -247 419 -481 480 -75 19 -251 19
-325 -1z m347 -113 c232 -81 376 -282 376 -526 0 -183 -72 -331 -212 -435 -75
-56 -108 -105 -117 -174 l-7 -46 -226 2 -226 3 -6 53 c-8 62 -36 102 -109 158
-29 21 -72 66 -97 99 -82 108 -113 201 -113 343 0 187 88 354 245 462 91 63
180 88 310 89 85 1 112 -3 182 -28z m43 -1311 l0 -30 -230 0 -230 0 0 23 c0
13 3 27 7 30 3 4 107 7 230 7 l223 0 0 -30z m-5 -141 c10 -16 -14 -66 -41 -84
-19 -12 -56 -15 -184 -15 l-162 0 -29 29 c-17 17 -29 40 -29 55 l0 26 219 0
c144 0 222 -4 226 -11z"/>
<path d="M1626 3324 c-34 -33 -13 -63 81 -116 104 -58 107 -59 132 -42 26 18
27 56 4 76 -36 29 -162 98 -182 98 -11 0 -27 -7 -35 -16z"/>
<path d="M3230 3291 c-46 -27 -87 -58 -91 -68 -9 -25 0 -52 22 -64 21 -11 38
-4 152 63 56 34 67 45 67 67 0 65 -39 66 -150 2z"/>
<path d="M1502 2848 c-7 -7 -12 -24 -12 -38 0 -42 17 -50 110 -50 72 0 90 3
103 18 22 24 21 45 -1 65 -23 21 -181 24 -200 5z"/>
<path d="M3296 2844 c-22 -21 -20 -61 3 -74 28 -14 184 -13 199 2 19 19 15 66
-7 78 -32 17 -177 13 -195 -6z"/>
<path d="M737 1353 c-9 -15 -177 -412 -177 -417 0 -3 24 -6 53 -6 54 0 54 0
70 40 l15 40 96 0 95 0 12 -40 12 -40 59 0 c32 0 58 2 58 4 0 2 -40 97 -88
212 l-89 209 -55 3 c-31 2 -58 -1 -61 -5z m88 -186 c14 -37 25 -70 25 -72 0
-3 -27 -5 -60 -5 -33 0 -60 2 -60 4 0 2 7 20 15 40 8 20 22 52 30 73 8 20 17
34 20 31 2 -2 16 -34 30 -71z"/>
<path d="M1235 1341 c-48 -22 -99 -74 -115 -116 -20 -51 -14 -132 12 -184 37
-70 93 -104 179 -109 60 -4 77 -1 125 23 30 15 58 34 61 42 3 8 -6 27 -22 43
l-27 28 -41 -24 c-97 -55 -187 -3 -187 108 0 51 19 82 62 104 39 20 96 14 137
-15 l29 -21 26 31 c32 38 32 43 -1 67 -66 45 -168 55 -238 23z"/>
<path d="M1757 1353 c-9 -15 -177 -412 -177 -417 0 -3 24 -6 53 -6 54 0 54 0
70 40 l15 40 96 0 95 0 12 -40 12 -40 59 0 c32 0 58 2 58 4 0 2 -40 97 -88
212 l-89 209 -55 3 c-31 2 -58 -1 -61 -5z m88 -186 c14 -37 25 -70 25 -72 0
-3 -27 -5 -60 -5 -33 0 -60 2 -60 4 0 2 7 20 15 40 8 20 22 52 30 73 8 20 17
34 20 31 2 -2 16 -34 30 -71z"/>
<path d="M2150 1145 l0 -217 133 4 c123 3 135 5 179 31 68 40 101 99 101 182
0 83 -33 142 -101 182 -44 26 -56 28 -179 31 l-133 4 0 -217z m266 91 c31 -31
34 -40 34 -91 0 -51 -3 -60 -34 -91 -31 -31 -39 -34 -95 -34 l-61 0 0 125 0
125 61 0 c56 0 64 -3 95 -34z"/>
<path d="M2690 1145 l0 -215 171 0 170 0 -3 43 -3 42 -117 3 -118 3 0 39 0 40
105 0 105 0 0 45 0 45 -105 0 -105 0 0 40 0 40 115 0 115 0 0 45 0 45 -165 0
-165 0 0 -215z"/>
<path d="M3160 1145 l0 -215 50 0 49 0 3 132 3 132 49 -113 49 -112 35 3 c34
3 36 5 82 111 26 59 50 110 53 114 4 3 7 -55 7 -130 l0 -137 45 0 45 0 0 215
0 215 -59 0 -58 0 -53 -117 c-29 -65 -56 -121 -59 -126 -4 -4 -32 48 -63 115
l-56 123 -61 3 -61 3 0 -216z"/>
<path d="M3780 1145 l0 -215 55 0 55 0 0 215 0 215 -55 0 -55 0 0 -215z"/>
<path d="M4025 1333 c10 -16 42 -63 71 -106 l53 -77 -68 -98 c-37 -53 -71
-103 -75 -109 -5 -10 8 -13 56 -13 l63 0 39 60 c21 33 42 63 47 66 5 2 28 -25
51 -60 l43 -66 63 0 c34 0 62 3 62 6 0 3 -31 52 -70 108 -38 57 -70 107 -70
111 0 4 29 49 65 101 36 52 65 96 65 99 0 3 -27 5 -60 5 l-59 0 -41 -60 c-22
-33 -43 -60 -45 -60 -2 0 -23 27 -45 60 l-41 60 -61 0 -60 0 17 -27z"/>
</g>
</svg>
