<svg xmlns="http://www.w3.org/2000/svg" version="1.1" xmlns:xlink="http://www.w3.org/1999/xlink" xmlns:svgjs="http://svgjs.dev/svgjs" width="2000" height="939" viewBox="0 0 2000 939"><g transform="matrix(1,0,0,1,-1.2121161484801632,-1.1207203854576733)"><svg viewBox="0 0 396 186" data-background-color="#ffffff" preserveAspectRatio="xMidYMid meet" height="939" width="2000" xmlns="http://www.w3.org/2000/svg" xmlns:xlink="http://www.w3.org/1999/xlink"><g id="tight-bounds" transform="matrix(1,0,0,1,0.23999903656317656,0.22199573130473027)"><svg viewBox="0 0 395.52 185.55600603109633" height="185.55600603109633" width="395.52"><g><svg viewBox="0 0 395.52 185.55600603109633" height="185.55600603109633" width="395.52"><g transform="matrix(1,0,0,1,0,114.68105586498339)"><svg viewBox="0 0 395.52 70.87495016611295" height="70.87495016611295" width="395.52"><g id="textblocktransform"><svg viewBox="0 0 395.52 70.87495016611295" height="70.87495016611295" width="395.52" id="textblock"><g><svg viewBox="0 0 395.52 70.87495016611295" height="70.87495016611295" width="395.52"><g transform="matrix(1,0,0,1,0,0)"><svg width="395.52" viewBox="1.350000023841858 -42.29999923706055 240.77999877929688 43.14999771118164" height="70.87495016611295" data-palette-color="#111111"><path d="M30.3 0L26.2-11.05 10.4-11.05 6.35 0 1.35 0 15.6-38.35 21-38.35 35.3 0 30.3 0ZM12.05-15.4L24.55-15.4 18.3-32.3 12.05-15.4ZM52.8 0.85Q46.35 0.8 42.87-3.15 39.4-7.1 39.4-13.85L39.4-13.85Q39.4-20.6 42.87-24.5 46.35-28.4 52.8-28.45L52.8-28.45Q55.05-28.45 56.67-28.13 58.3-27.8 60.15-27.05L60.15-27.05 60.15-22.5Q58.35-23.35 56.72-23.7 55.1-24.05 53.15-24.05L53.15-24.05Q48.5-24 46.4-21.28 44.3-18.55 44.3-13.9L44.3-13.9Q44.3-9.15 46.4-6.35 48.5-3.55 53.05-3.5L53.05-3.5Q56.6-3.5 60.8-5.65L60.8-5.65 62.3-1.55Q57.75 0.85 52.8 0.85L52.8 0.85ZM76.9-27.65Q81.3-27.65 83.6-26.18 85.9-24.7 86.65-22.23 87.4-19.75 87.4-16L87.4-16 87.4 0 82.7 0 82.7-2.75Q80.8-0.95 78.9-0.15 77 0.65 74.8 0.65L74.8 0.65Q72.2 0.65 70.1-0.48 68-1.6 66.77-3.73 65.55-5.85 65.55-8.75L65.55-8.75Q65.55-13.25 68.35-15.73 71.15-18.2 75.9-18.2L75.9-18.2Q79.65-18.2 82.65-16.55L82.65-16.55Q82.6-19 82.15-20.45 81.7-21.9 80.3-22.68 78.9-23.45 76.15-23.45L76.15-23.45 72.45-23.45 72.45-27.65 76.9-27.65ZM75.45-3.4Q77.15-3.4 79.02-4.2 80.9-5 82.7-6.6L82.7-6.6 82.7-12.9Q79.9-14.3 76.6-14.3L76.6-14.3Q73.95-14.3 72.15-13.03 70.35-11.75 70.35-8.75L70.35-8.75Q70.35-5.95 71.87-4.67 73.4-3.4 75.45-3.4L75.45-3.4ZM113.74-42.3L118.44-42.3 118.44 0 113.74 0 113.74-2.5Q109.79 0.85 105.74 0.85L105.74 0.85Q100.14 0.85 96.79-2.9 93.44-6.65 93.44-13.8L93.44-13.8Q93.44-20.95 96.79-24.7 100.14-28.45 105.74-28.45L105.74-28.45Q109.74-28.45 113.74-25.05L113.74-25.05 113.74-42.3ZM106.34-3.5Q109.94-3.5 113.74-6.6L113.74-6.6 113.74-20.95Q110.04-24.05 106.34-24.05L106.34-24.05Q102.39-24.05 100.37-21.45 98.34-18.85 98.34-13.8L98.34-13.8Q98.34-8.75 100.37-6.13 102.39-3.5 106.34-3.5L106.34-3.5ZM130.64-13.45Q130.74-8.85 132.94-6.1 135.14-3.35 139.94-3.35L139.94-3.35Q143.59-3.35 147.94-5.4L147.94-5.4 149.39-1.5Q144.84 0.85 139.54 0.85L139.54 0.85Q135.14 0.85 132.04-1 128.94-2.85 127.34-6.15 125.74-9.45 125.74-13.85L125.74-13.85Q125.74-18.5 127.42-21.78 129.09-25.05 131.94-26.75 134.79-28.45 138.34-28.45L138.34-28.45Q143.79-28.45 146.89-25.05 149.99-21.65 149.99-15.3L149.99-15.3 149.99-13.45 130.64-13.45ZM138.34-24.25Q132.14-24.25 130.94-17.4L130.94-17.4 145.04-17.4Q144.79-20.9 143.14-22.58 141.49-24.25 138.34-24.25L138.34-24.25ZM187.79-28.25Q192.84-28.25 195.26-25.55 197.69-22.85 197.69-16.65L197.69-16.65 197.69 0 192.99 0 192.99-16.65Q192.99-20.6 191.71-22.23 190.44-23.85 187.14-23.85L187.14-23.85Q183.24-23.85 179.34-20.1L179.34-20.1Q179.54-18.7 179.54-16.65L179.54-16.65 179.54 0 174.84 0 174.84-16.65Q174.84-20.6 173.56-22.23 172.29-23.85 168.99-23.85L168.99-23.85Q165.19-23.85 161.39-20.45L161.39-20.45 161.39 0 156.69 0 156.69-27.65 161.39-27.65 161.39-24.7Q165.44-28.25 169.64-28.25L169.64-28.25Q172.99-28.25 175.14-27.13 177.29-26 178.39-23.55L178.39-23.55Q182.94-28.25 187.79-28.25L187.79-28.25ZM205.59-32.85L205.59-40.4 210.29-40.4 210.29-32.85 205.59-32.85ZM205.59 0L205.59-27.65 210.29-27.65 210.29 0 205.59 0ZM242.13 0L236.48 0 229.18-10.75 222.18 0 216.53 0 226.28-14.45 217.03-27.65 222.68-27.65 229.38-17.75 236.13-27.65 241.68-27.65 232.18-14.05 242.13 0Z" opacity="1" transform="matrix(1,0,0,1,0,0)" fill="#111111" class="wordmark-text-0" data-fill-palette-color="primary" id="text-0"></path></svg></g></svg></g></svg></g></svg></g><g transform="matrix(1,0,0,1,148.78540943521594,0)"><svg viewBox="0 0 97.9491811295681 97.9491811295681" height="97.9491811295681" width="97.9491811295681"><g><svg></svg></g><g id="icon-0"><svg viewBox="0 0 97.9491811295681 97.9491811295681" height="97.9491811295681" width="97.9491811295681"><g><path xmlns="http://www.w3.org/2000/svg" d="M29.385 97.949c-16.229 0-29.385-13.156-29.385-29.385v-39.179c0-16.229 13.156-29.385 29.385-29.385h39.179c16.229 0 29.385 13.156 29.385 29.385v39.179c0 16.229-13.156 29.385-29.385 29.385z" fill="#1c2587" fill-rule="nonzero" stroke="none" stroke-width="1" stroke-linecap="butt" stroke-linejoin="miter" stroke-miterlimit="10" stroke-dasharray="" stroke-dashoffset="0" font-family="none" font-weight="none" font-size="none" text-anchor="none" style="mix-blend-mode: normal" data-fill-palette-color="accent"></path></g><g transform="matrix(1,0,0,1,19.589836225913622,27.92056554878926)"><svg viewBox="0 0 58.76950867774086 42.108050031989585" height="42.108050031989585" width="58.76950867774086"><g><svg xmlns="http://www.w3.org/2000/svg" xmlns:xlink="http://www.w3.org/1999/xlink" version="1.1" x="0" y="0" viewBox="1.5 15.200000762939453 97 69.5" enable-background="new 0 0 100 100" xml:space="preserve" height="42.108050031989585" width="58.76950867774086" class="icon-s-0" data-fill-palette-color="quaternary" id="s-0"><path d="M7.2 84.7h85.5c3.2 0 5.8-2.6 5.8-5.8v-2.5c0-0.5-0.2-1-0.5-1.4l-4.3-5.3c-0.7-0.9-1.1-1.9-1.1-3v-5-3.2-9.2l0 0V23.7c0-4.7-3.8-8.5-8.5-8.5H52.4 15.9c-4.7 0-8.5 3.8-8.5 8.5v34.8 1.9 6.2c0 1.1-0.4 2.2-1.1 3L2 75.1c-0.3 0.4-0.5 0.9-0.5 1.4V79C1.5 82.2 4.1 84.7 7.2 84.7zM59.2 76.4c0 1.6-1.3 2.9-2.9 2.9H43.8c-1.6 0-2.9-1.3-2.9-2.9v-0.6h18.4V76.4zM15.9 60.8v-2.2V23.7c0 0 0 0 0 0h40.3 27.9c0 0 0 0 0 0v34.9 2.2 0.6h0v0.4 5.5H15.9V60.8zM54.9 32.9l3.9 2.2-13.7 24-3.9-2.2L54.9 32.9zM38.5 38l-8 8 8 8-3.2 3.2-8-8L24.2 46l3.2-3.2 8-8L38.5 38zM72.6 42.8l3.2 3.2-3.2 3.2-8 8L61.5 54l8-8-8-8 3.2-3.2L72.6 42.8z" fill="#ffffff" data-fill-palette-color="quaternary"></path></svg></g></svg></g></svg></g></svg></g><g></g></svg></g><defs></defs></svg><rect width="395.52" height="185.55600603109633" fill="none" stroke="none" visibility="hidden"></rect></g></svg></g></svg>