<?xml version="1.0" standalone="no"?>
<!DOCTYPE svg PUBLIC "-//W3C//DTD SVG 20010904//EN"
 "http://www.w3.org/TR/2001/REC-SVG-20010904/DTD/svg10.dtd">
<svg version="1.0" xmlns="http://www.w3.org/2000/svg"
 width="1200.000000pt" height="1200.000000pt" viewBox="0 0 1200.000000 1200.000000"
 preserveAspectRatio="xMidYMid meet">

<g transform="translate(0.000000,1200.000000) scale(0.100000,-0.100000)"
fill="#000000" stroke="none">
<path d="M5707 11979 c-313 -14 -694 -64 -1008 -134 -950 -212 -1793 -629
-2564 -1271 -279 -232 -672 -650 -912 -969 -953 -1268 -1359 -2873 -1128
-4459 315 -2172 1798 -3991 3865 -4741 488 -177 975 -283 1545 -337 212 -20
824 -17 1045 5 796 80 1479 277 2160 623 1298 658 2314 1775 2845 3129 478
1217 543 2579 185 3838 -456 1603 -1569 2946 -3059 3691 -767 384 -1552 587
-2426 626 -241 11 -285 11 -548 -1z m616 -3053 c297 -48 528 -122 792 -251
262 -128 499 -298 710 -510 221 -221 372 -431 509 -705 125 -251 200 -480 246
-748 20 -120 41 -341 33 -354 -7 -13 -409 -8 -573 7 -352 31 -669 105 -1000
232 -563 216 -1090 568 -1513 1009 -244 255 -544 682 -684 975 -62 129 -68
116 82 176 234 93 478 155 720 183 123 13 562 4 678 -14z m-1725 -470 c197
-406 566 -906 888 -1203 541 -500 1216 -878 1860 -1042 206 -52 245 -60 404
-85 193 -30 374 -45 645 -54 l210 -7 -3 -65 c-6 -156 -68 -434 -143 -645 -56
-157 -189 -421 -284 -565 -342 -515 -845 -897 -1426 -1085 -128 -41 -272 -75
-434 -102 -140 -23 -599 -26 -740 -5 -304 46 -590 134 -838 258 -1094 550
-1682 1747 -1442 2939 141 700 543 1297 1155 1713 41 28 80 51 86 52 6 0 34
-47 62 -104z m-65 -5444 c306 -469 775 -749 1345 -803 281 -27 614 41 897 183
289 145 512 345 693 622 l65 99 196 -6 c538 -17 1007 -165 1446 -456 202 -134
418 -322 595 -516 104 -114 220 -254 220 -265 0 -3 -49 -49 -110 -103 -445
-400 -917 -714 -1434 -954 -1044 -485 -2195 -648 -3336 -472 -1030 158 -2009
600 -2805 1266 -132 110 -289 250 -293 261 -3 11 112 153 227 277 492 534
1081 853 1731 939 151 20 179 22 352 24 l147 2 64 -98z m2651 89 c12 -19 -123
-172 -236 -267 -196 -164 -378 -256 -637 -321 -98 -25 -122 -27 -311 -27 -189
0 -213 2 -311 27 -262 66 -451 162 -648 331 -109 94 -236 239 -225 257 3 5
536 9 1184 9 648 0 1181 -4 1184 -9z"/>
<path d="M5524 4774 c-42 -20 -64 -62 -64 -121 0 -52 15 -82 64 -123 110 -92
208 -137 357 -163 l119 -21 119 21 c149 26 247 71 357 163 49 41 64 71 64 123
0 59 -23 101 -66 122 -65 30 -116 18 -196 -47 -29 -24 -78 -55 -108 -68 -48
-22 -69 -25 -170 -25 -101 0 -122 3 -170 25 -30 13 -79 44 -108 68 -80 65
-134 78 -198 46z"/>
</g>
</svg>
