<?xml version="1.0" standalone="no"?>
<!DOCTYPE svg PUBLIC "-//W3C//DTD SVG 20010904//EN"
 "http://www.w3.org/TR/2001/REC-SVG-20010904/DTD/svg10.dtd">
<svg version="1.0" xmlns="http://www.w3.org/2000/svg"
 width="100.000000pt" height="100.000000pt" viewBox="0 0 100.000000 100.000000"
 preserveAspectRatio="xMidYMid meet">

<g transform="translate(0.000000,100.000000) scale(0.100000,-0.100000)"
fill="#000000" stroke="none">
<path d="M200 911 c-75 -26 -143 -100 -166 -178 -33 -112 -6 -216 86 -331 42
-54 313 -297 357 -320 32 -17 39 -12 216 141 224 194 282 281 282 417 -1 137
-73 241 -191 276 -94 27 -172 7 -246 -64 l-37 -35 -40 36 c-82 74 -164 92
-261 58z m170 -61 c21 -11 56 -40 77 -65 20 -25 44 -45 53 -45 8 0 35 23 59
51 50 58 91 79 153 79 88 -1 176 -68 199 -152 16 -60 7 -146 -20 -198 -37 -72
-89 -127 -244 -262 l-148 -128 -140 121 c-228 199 -279 269 -279 388 1 100 49
182 128 217 43 19 118 16 162 -6z"/>
</g>
</svg>
