<?xml version="1.0" standalone="no"?>
<!DOCTYPE svg PUBLIC "-//W3C//DTD SVG 20010904//EN"
 "http://www.w3.org/TR/2001/REC-SVG-20010904/DTD/svg10.dtd">
<svg version="1.0" xmlns="http://www.w3.org/2000/svg"
 width="1920.000000pt" height="1080.000000pt" viewBox="0 0 1920.000000 1080.000000"
 preserveAspectRatio="xMidYMid meet">

<g transform="translate(0.000000,1080.000000) scale(0.100000,-0.100000)"
fill="#000000" stroke="none">
<path d="M9554 7705 c-25 -25 -26 -28 -22 -156 3 -116 5 -132 22 -145 28 -20
63 -17 86 6 18 18 20 33 20 145 0 120 -1 127 -25 150 -31 32 -50 31 -81 0z"/>
<path d="M8977 7552 c-26 -29 -21 -57 30 -145 70 -124 89 -147 123 -147 31 0
60 30 60 62 0 26 -119 227 -141 238 -27 15 -54 12 -72 -8z"/>
<path d="M10138 7558 c-17 -14 -122 -193 -132 -226 -8 -25 29 -72 58 -72 12 0
29 6 38 13 28 22 131 211 131 241 1 47 -57 74 -95 44z"/>
<path d="M8135 7434 c-96 -12 -159 -38 -206 -83 -75 -73 -79 -98 -80 -460 0
-329 -5 -366 -49 -388 -14 -7 -49 -13 -78 -13 l-53 0 3 -117 3 -118 61 -3 c51
-2 66 -7 85 -28 l24 -26 5 -346 5 -347 26 -50 c53 -103 155 -145 353 -145
l106 0 0 109 c0 120 0 120 -75 121 -44 1 -111 34 -132 66 -16 25 -19 60 -24
314 -6 293 -10 323 -51 382 -10 14 -36 35 -58 45 -22 10 -40 21 -40 24 0 4 14
12 30 19 40 16 86 70 101 117 7 24 14 146 18 323 5 252 8 288 24 312 22 32 78
56 152 64 l56 7 -3 111 -3 111 -85 1 c-47 1 -98 0 -115 -2z"/>
<path d="M10867 7433 c-4 -3 -7 -54 -7 -112 l0 -107 70 -11 c76 -12 110 -29
137 -70 16 -24 19 -62 23 -313 5 -263 7 -288 26 -330 23 -49 52 -79 98 -103
l30 -15 -41 -21 c-23 -11 -50 -33 -60 -48 -45 -67 -47 -77 -53 -378 -4 -259
-7 -294 -23 -319 -21 -32 -88 -65 -132 -66 -75 -1 -75 -1 -75 -121 l0 -109
106 0 c203 0 303 42 352 148 l27 57 5 342 5 341 24 26 c19 21 34 26 85 28 l61
3 3 118 3 117 -56 0 c-120 0 -119 -5 -125 405 -5 298 -7 345 -23 380 -38 85
-105 129 -226 151 -80 14 -223 19 -234 7z"/>
<path d="M9451 7250 c-306 -65 -546 -291 -621 -585 -27 -108 -27 -282 0 -390
42 -163 147 -326 271 -419 35 -26 70 -58 79 -69 12 -18 16 -68 20 -257 5 -218
7 -238 27 -276 25 -47 73 -91 120 -111 24 -9 89 -13 245 -13 241 0 266 6 327
75 59 68 63 87 65 330 2 146 7 227 14 242 7 12 38 42 70 66 136 105 231 235
280 385 33 103 42 303 18 406 -69 291 -264 504 -544 593 -86 27 -291 40 -371
23z m312 -136 c279 -71 479 -318 494 -609 6 -127 -13 -222 -66 -330 -47 -95
-108 -166 -196 -231 -79 -58 -113 -107 -129 -188 l-13 -61 -264 0 -264 0 -6
50 c-10 77 -41 128 -117 188 -98 79 -157 148 -202 241 -173 351 -12 770 353
916 127 51 273 59 410 24z m97 -1579 l0 -35 -270 0 -270 0 0 28 c0 16 3 32 7
35 3 4 125 7 270 7 l263 0 0 -35z m0 -182 c0 -25 -34 -74 -62 -89 -16 -10 -77
-13 -210 -14 l-186 0 -32 27 c-33 27 -54 68 -44 84 3 5 120 9 270 9 245 0 264
-1 264 -17z"/>
<path d="M8557 7132 c-22 -24 -22 -65 1 -84 32 -29 207 -128 224 -128 25 0 58
36 58 63 0 28 -24 51 -105 99 -126 75 -150 81 -178 50z"/>
<path d="M10480 7094 c-106 -62 -115 -69 -125 -101 -4 -17 1 -29 19 -48 14
-14 31 -25 38 -25 20 0 210 109 231 132 9 11 17 28 17 37 0 25 -37 61 -63 61
-12 -1 -65 -26 -117 -56z"/>
<path d="M8420 6568 c-32 -17 -39 -71 -14 -99 15 -16 31 -19 121 -19 90 0 106
3 123 20 25 25 25 51 1 81 -17 22 -28 24 -113 27 -62 2 -101 -2 -118 -10z"/>
<path d="M10565 6569 c-27 -17 -35 -29 -35 -60 0 -48 26 -59 138 -59 89 0 105
3 122 20 26 26 25 62 -1 86 -17 15 -39 20 -113 22 -57 1 -98 -2 -111 -9z"/>
<path d="M10440 4661 l0 -69 -43 16 c-37 13 -46 13 -72 1 -49 -23 -75 -73 -75
-141 0 -96 40 -151 110 -151 25 0 48 7 61 19 19 17 21 18 30 1 6 -10 22 -17
39 -17 l30 0 0 205 0 205 -40 0 -40 0 0 -69z m-15 -125 c15 -11 19 -26 19 -69
0 -63 -15 -87 -55 -87 -36 0 -59 32 -59 85 0 72 47 107 95 71z"/>
<path d="M10616 4717 c-28 -21 -17 -61 17 -65 49 -6 73 30 41 62 -19 19 -35
20 -58 3z"/>
<path d="M7150 4510 l0 -190 35 0 34 0 3 137 3 138 41 -135 40 -135 40 -3 40
-3 46 143 46 143 1 -142 1 -143 40 0 40 0 0 190 0 190 -58 0 -58 0 -43 -132
c-24 -73 -47 -137 -51 -141 -4 -5 -11 4 -14 20 -4 15 -23 79 -42 141 l-35 112
-55 0 -54 0 0 -190z"/>
<path d="M11349 4641 c-6 -16 -21 -37 -35 -46 -29 -19 -32 -45 -5 -45 17 0 19
-9 23 -95 4 -114 19 -138 90 -139 62 -1 78 8 78 43 0 29 -2 30 -30 25 -48 -10
-60 8 -60 92 l0 74 40 0 c38 0 40 2 40 30 0 28 -2 30 -40 30 -38 0 -40 2 -40
30 0 25 -4 30 -26 30 -19 0 -28 -7 -35 -29z"/>
<path d="M7710 4607 c-52 -18 -80 -67 -80 -139 0 -103 48 -151 149 -151 85 0
101 8 101 49 0 31 -2 34 -19 24 -33 -17 -116 -12 -134 8 -32 35 -21 41 76 44
l92 3 -2 40 c-5 82 -37 120 -110 130 -21 2 -54 -1 -73 -8z m94 -69 c24 -34 20
-38 -39 -38 -30 0 -55 3 -55 8 0 20 34 52 55 52 13 0 31 -10 39 -22z"/>
<path d="M8068 4601 c-30 -15 -38 -16 -42 -5 -3 8 -19 14 -36 14 l-30 0 0
-145 0 -145 40 0 40 0 0 93 c0 107 13 137 60 137 41 0 50 -23 50 -134 l0 -96
40 0 40 0 0 104 c0 127 -11 163 -56 182 -44 18 -63 18 -106 -5z"/>
<path d="M8340 4602 c-76 -38 -63 -112 28 -158 94 -48 72 -91 -30 -60 l-48 14
0 -33 c0 -35 3 -37 66 -50 44 -8 116 10 137 36 19 24 22 70 6 101 -6 11 -35
30 -64 43 -59 27 -74 43 -54 56 13 9 38 7 85 -6 15 -5 23 0 32 20 7 14 12 27
12 29 0 6 -87 26 -112 26 -13 0 -39 -8 -58 -18z"/>
<path d="M8634 4611 c-49 -12 -56 -19 -43 -44 7 -12 13 -23 14 -25 1 -2 23 2
49 9 51 13 76 2 76 -31 0 -14 -12 -18 -58 -23 -32 -2 -69 -11 -80 -18 -58 -36
-45 -137 20 -158 35 -12 87 -2 115 21 12 10 17 9 24 -5 6 -10 22 -17 39 -17
l30 0 -1 98 c0 122 -13 161 -59 184 -36 19 -74 21 -126 9z m96 -186 c0 -30
-40 -59 -70 -50 -22 7 -27 44 -8 63 7 7 27 12 45 12 28 0 33 -3 33 -25z"/>
<path d="M8943 4609 c-18 -5 -39 -19 -48 -31 -21 -31 -19 -91 4 -119 17 -21
17 -25 3 -47 -11 -18 -12 -28 -4 -47 9 -20 7 -26 -14 -39 -32 -22 -33 -77 -3
-105 29 -27 99 -36 164 -22 79 18 119 73 95 131 -15 36 -29 42 -110 49 -49 5
-65 10 -65 21 0 10 14 17 45 20 25 3 55 11 66 18 27 15 48 65 40 96 -5 19 -1
26 14 31 11 3 20 15 20 26 0 16 -7 19 -44 19 -24 0 -63 2 -87 5 -24 2 -58 0
-76 -6z m78 -49 c12 -7 19 -21 19 -38 0 -40 -13 -54 -46 -50 -25 3 -29 8 -32
36 -3 33 11 62 30 62 5 0 18 -5 29 -10z m51 -263 c14 -22 -26 -49 -74 -49 -25
-1 -50 2 -56 6 -20 12 -13 46 11 56 28 12 108 4 119 -13z"/>
<path d="M9275 4613 c-60 -17 -95 -72 -95 -150 0 -54 24 -102 65 -129 27 -18
111 -24 158 -11 23 6 27 13 27 43 0 32 -2 34 -20 24 -11 -6 -41 -11 -67 -12
-37 0 -50 4 -65 22 -10 12 -18 26 -18 31 0 4 42 10 93 11 l92 3 3 31 c4 42
-20 99 -52 119 -27 18 -88 27 -121 18z m79 -69 c31 -31 20 -44 -39 -44 -59 0
-63 4 -39 38 18 26 56 29 78 6z"/>
<path d="M9640 4613 c-8 -3 -23 -13 -33 -22 -17 -14 -19 -14 -28 2 -6 10 -22
17 -39 17 l-30 0 0 -145 0 -145 40 0 40 0 0 88 c0 103 13 136 55 140 45 6 55
-17 55 -130 l0 -98 40 0 40 0 0 109 c0 60 -4 121 -10 136 -15 39 -85 64 -130
48z"/>
<path d="M9913 4612 c-42 -13 -63 -40 -63 -80 0 -45 12 -58 88 -96 28 -14 52
-31 52 -36 0 -21 -39 -30 -82 -20 -60 13 -60 14 -56 -22 3 -30 7 -33 47 -40
60 -10 121 5 149 37 44 51 20 104 -67 145 -76 35 -64 73 16 51 32 -9 40 -8 51
6 16 22 15 40 -3 47 -27 10 -110 15 -132 8z"/>
<path d="M10900 4613 c-8 -3 -25 -15 -38 -26 l-23 -21 -6 22 c-4 16 -13 22
-34 22 l-29 0 0 -145 0 -145 40 0 40 0 0 90 c0 102 15 130 69 130 25 0 29 4
34 33 2 17 3 35 0 40 -5 8 -30 8 -53 0z"/>
<path d="M11071 4602 c-56 -28 -76 -64 -76 -137 0 -98 46 -146 144 -148 77 -2
101 8 101 44 0 29 -2 30 -31 24 -40 -9 -95 -9 -109 0 -6 4 -15 17 -19 29 -8
20 -5 21 83 26 l91 5 3 40 c3 51 -27 101 -73 121 -45 18 -73 18 -114 -4z m90
-52 c10 -6 19 -20 19 -30 0 -17 -7 -20 -50 -20 -43 0 -50 3 -50 20 0 33 44 49
81 30z"/>
<path d="M11608 4608 c-40 -11 -46 -23 -25 -51 10 -14 18 -15 47 -7 47 13 56
13 74 -6 30 -30 19 -41 -44 -46 -82 -6 -114 -30 -118 -89 -2 -37 1 -49 23 -69
35 -33 104 -33 139 -1 23 22 23 22 29 2 4 -16 13 -21 36 -21 l31 0 0 108 c0
122 -9 149 -60 174 -38 20 -75 21 -132 6z m112 -172 c0 -28 -13 -48 -37 -57
-46 -17 -84 26 -51 59 17 17 88 16 88 -2z"/>
<path d="M11920 4609 c-40 -16 -60 -40 -60 -71 0 -46 18 -68 76 -94 52 -23 75
-47 59 -62 -10 -10 -90 -5 -114 8 -19 10 -21 8 -21 -24 0 -31 4 -36 28 -42 15
-3 33 -8 41 -10 29 -9 101 9 126 32 18 16 25 33 25 59 0 44 -30 74 -95 99 -74
29 -51 66 28 45 42 -11 57 -3 57 33 0 30 -97 48 -150 27z"/>
<path d="M10600 4465 l0 -145 40 0 40 0 0 145 0 145 -40 0 -40 0 0 -145z"/>
<path d="M5367 3824 c-4 -4 -7 -83 -7 -176 0 -162 1 -168 20 -168 20 0 20 5
18 172 -3 161 -9 194 -31 172z"/>
<path d="M9700 3765 c0 -36 -2 -65 -5 -65 -3 0 -17 7 -30 16 -33 21 -84 12
-115 -21 -36 -38 -40 -128 -8 -175 21 -31 29 -35 72 -38 35 -2 53 2 67 14 17
16 19 16 19 1 0 -10 7 -17 15 -17 13 0 15 26 15 175 0 149 -2 175 -15 175 -12
0 -15 -14 -15 -65z m-12 -121 c15 -44 9 -96 -14 -119 -20 -19 -78 -20 -94 0
-17 21 -24 95 -11 128 12 32 45 47 81 37 18 -4 29 -18 38 -46z"/>
<path d="M11050 3655 c0 -149 2 -175 15 -175 13 0 15 26 15 175 0 149 -2 175
-15 175 -13 0 -15 -26 -15 -175z"/>
<path d="M4895 3799 c-31 -18 -45 -40 -45 -72 0 -46 18 -67 86 -98 49 -23 65
-35 70 -56 6 -21 2 -31 -17 -46 -20 -16 -34 -18 -86 -14 -50 5 -63 3 -63 -8 0
-33 127 -39 169 -8 64 48 50 112 -35 153 -67 33 -84 48 -84 75 0 36 24 48 84
42 41 -4 56 -2 60 8 3 8 1 17 -5 20 -20 13 -114 15 -134 4z"/>
<path d="M5944 3799 c-3 -6 0 -17 8 -25 13 -13 16 -13 27 0 7 8 10 20 6 26 -8
13 -32 13 -41 -1z"/>
<path d="M11162 3788 c2 -13 10 -23 18 -23 8 0 16 10 18 23 3 17 -2 22 -18 22
-16 0 -21 -5 -18 -22z"/>
<path d="M13864 3799 c-3 -6 0 -17 8 -25 13 -13 16 -13 27 0 7 8 10 20 6 26
-8 13 -32 13 -41 -1z"/>
<path d="M8587 3773 c-4 -3 -7 -15 -7 -26 0 -10 -9 -21 -20 -24 -23 -6 -27
-33 -5 -33 12 0 15 -15 15 -77 0 -43 6 -89 13 -103 13 -25 49 -40 80 -32 25 6
21 32 -6 32 -38 0 -47 19 -47 102 l0 78 35 0 c24 0 35 5 35 15 0 10 -11 15
-35 15 -32 0 -35 2 -35 30 0 29 -9 38 -23 23z"/>
<path d="M8994 3755 c-3 -14 -15 -30 -25 -36 -25 -13 -24 -29 1 -29 18 0 20
-7 20 -88 0 -113 10 -127 88 -123 35 2 28 31 -8 31 -39 0 -50 23 -50 109 l0
71 35 0 c46 0 49 27 3 32 -28 2 -34 8 -36 31 -4 34 -20 35 -28 2z"/>
<path d="M11507 3773 c-4 -3 -7 -15 -7 -26 0 -10 -9 -21 -20 -24 -23 -6 -27
-33 -5 -33 12 0 15 -15 15 -77 0 -43 6 -89 13 -103 13 -25 49 -40 80 -32 25 6
21 32 -6 32 -38 0 -47 19 -47 102 l0 78 35 0 c24 0 35 5 35 15 0 10 -11 15
-35 15 -32 0 -35 2 -35 30 0 29 -9 38 -23 23z"/>
<path d="M5161 3717 c-42 -21 -63 -60 -63 -116 0 -86 38 -123 123 -123 54 1
69 7 69 27 0 10 -12 12 -54 8 -46 -5 -57 -2 -75 16 -11 11 -21 30 -21 41 0 18
7 20 80 20 l80 0 0 30 c0 42 -20 79 -51 96 -34 17 -57 18 -88 1z m87 -45 c25
-32 15 -42 -48 -42 -41 0 -60 4 -60 13 0 20 14 35 40 45 29 11 50 6 68 -16z"/>
<path d="M5522 3717 c-74 -43 -80 -175 -9 -222 42 -27 147 -20 147 10 0 10
-12 12 -52 8 -58 -6 -90 11 -103 55 -6 22 -5 22 81 22 l87 0 -6 42 c-3 24 -15
51 -29 65 -29 28 -84 38 -116 20z m92 -49 c9 -12 16 -26 16 -30 0 -5 -29 -8
-65 -8 -67 0 -73 7 -42 48 16 21 74 15 91 -10z"/>
<path d="M5785 3721 c-45 -19 -60 -49 -60 -122 0 -56 4 -72 21 -89 38 -39 135
-44 142 -8 2 13 -5 15 -41 11 -61 -7 -87 18 -87 85 0 70 20 94 78 91 36 -3 48
0 50 13 5 24 -60 36 -103 19z"/>
<path d="M6114 3720 c-39 -16 -64 -59 -64 -112 0 -87 37 -131 111 -130 49 1
75 15 94 52 56 108 -36 233 -141 190z m100 -52 c9 -13 16 -43 16 -70 0 -59
-24 -88 -74 -88 -45 0 -66 29 -66 90 0 63 21 90 70 90 29 0 43 -6 54 -22z"/>
<path d="M6420 3723 c-8 -3 -23 -12 -32 -21 -16 -14 -18 -13 -18 1 0 10 -7 17
-15 17 -12 0 -15 -20 -15 -120 0 -100 3 -120 15 -120 12 0 15 14 15 70 0 39 6
86 14 105 13 31 19 35 53 35 22 0 44 -5 51 -12 8 -8 12 -46 12 -105 0 -86 1
-93 20 -93 19 0 20 7 20 99 0 79 -3 103 -17 120 -18 22 -75 35 -103 24z"/>
<path d="M6654 3711 c-69 -43 -71 -177 -3 -219 39 -25 149 -15 149 13 0 10
-14 12 -58 8 -55 -5 -60 -4 -80 22 -38 48 -31 55 58 55 91 0 99 7 81 63 -23
68 -89 95 -147 58z m94 -34 c6 -5 12 -18 12 -28 0 -17 -8 -19 -60 -19 -64 0
-66 1 -49 31 18 35 63 42 97 16z"/>
<path d="M7335 3718 c-11 -6 -23 -16 -27 -22 -5 -7 -8 -4 -8 7 0 10 -8 17 -20
17 -19 0 -20 -7 -20 -120 0 -113 1 -120 20 -120 18 0 20 7 20 78 0 97 14 126
60 130 50 5 60 -15 60 -120 0 -81 2 -88 20 -88 18 0 20 7 20 86 0 107 8 124
59 124 48 0 51 -7 51 -121 0 -82 1 -89 20 -89 19 0 20 7 20 98 0 112 -11 138
-64 148 -33 6 -73 -8 -88 -30 -6 -8 -10 -8 -15 0 -22 31 -74 42 -108 22z"/>
<path d="M7848 3714 c-54 -29 -73 -108 -44 -179 20 -47 48 -59 129 -56 20 1
27 6 27 21 0 16 -5 19 -30 14 -70 -15 -108 27 -97 108 7 51 27 68 84 68 30 0
43 4 43 14 0 27 -70 34 -112 10z"/>
<path d="M8071 3717 c-42 -21 -63 -60 -63 -116 0 -81 39 -124 113 -123 47 1
75 18 94 58 52 110 -45 232 -144 181z m85 -35 c19 -12 34 -49 34 -82 0 -33
-15 -70 -34 -82 -6 -4 -25 -8 -42 -8 -45 0 -66 29 -66 90 0 61 21 90 66 90 17
0 36 -4 42 -8z"/>
<path d="M8365 3718 c-11 -6 -23 -16 -27 -22 -5 -7 -8 -4 -8 7 0 10 -8 17 -20
17 -19 0 -20 -7 -20 -120 0 -113 1 -120 20 -120 18 0 20 7 20 78 0 100 13 126
65 130 56 5 65 -13 65 -120 0 -81 2 -88 20 -88 19 0 20 7 20 90 0 49 -5 100
-11 113 -19 42 -81 59 -124 35z"/>
<path d="M8772 3719 c-35 -10 -39 -36 -6 -32 81 10 103 2 104 -39 0 -12 -12
-19 -47 -24 -60 -8 -100 -28 -108 -53 -9 -28 4 -70 25 -81 29 -15 92 -12 112
6 16 16 18 16 24 0 3 -9 12 -16 20 -16 23 0 20 191 -3 219 -21 25 -74 34 -121
20z m98 -142 c0 -38 -27 -67 -64 -67 -39 0 -60 21 -51 49 7 22 45 39 88 40 22
1 27 -3 27 -22z"/>
<path d="M9188 3715 c-70 -39 -79 -156 -17 -214 17 -15 36 -21 72 -21 40 0 53
5 78 29 26 26 29 36 29 90 0 52 -4 65 -27 91 -34 38 -93 49 -135 25z m104 -42
c23 -21 25 -109 2 -141 -15 -22 -66 -30 -90 -14 -35 23 -46 111 -18 150 19 27
78 30 106 5z"/>
<path d="M9853 3719 c-22 -6 -30 -14 -27 -24 6 -14 22 -14 69 0 24 6 55 -15
55 -39 0 -21 -6 -26 -37 -31 -70 -11 -82 -15 -97 -31 -21 -20 -21 -78 0 -98
24 -24 84 -24 122 0 19 13 22 13 22 -1 0 -8 7 -15 15 -15 24 0 22 190 -2 219
-21 25 -74 34 -120 20z m97 -147 c0 -39 -30 -64 -72 -60 -29 3 -33 7 -36 34
-3 27 1 34 25 42 15 6 40 11 56 11 23 1 27 -3 27 -27z"/>
<path d="M10202 3715 c-30 -13 -33 -18 -30 -52 3 -35 7 -40 63 -69 96 -49 82
-96 -26 -81 -29 4 -39 2 -39 -8 0 -21 17 -27 72 -27 38 0 55 5 74 23 47 44 27
82 -66 125 -37 17 -51 29 -48 41 4 21 43 32 86 22 18 -4 35 -3 38 3 19 30 -72
47 -124 23z"/>
<path d="M10720 3722 c-14 -5 -26 -16 -28 -26 -3 -16 1 -17 30 -10 18 4 42 7
53 6 20 -1 45 -27 45 -48 0 -12 -43 -24 -85 -24 -12 0 -34 -9 -49 -21 -32 -25
-36 -77 -7 -103 25 -23 84 -23 116 -2 22 14 25 15 25 1 0 -8 7 -15 15 -15 12
0 15 18 15 103 0 89 -3 106 -19 121 -22 20 -75 28 -111 18z m93 -129 c2 -5 0
-23 -5 -40 -9 -34 -35 -48 -79 -41 -27 3 -38 40 -19 63 16 20 94 33 103 18z"/>
<path d="M11301 3718 c-33 -18 -45 -40 -37 -71 5 -20 21 -33 66 -54 63 -29 78
-46 58 -70 -9 -12 -26 -14 -70 -10 -45 4 -58 2 -58 -8 0 -21 15 -26 70 -27 71
0 102 22 98 70 -3 34 -8 39 -63 67 -33 17 -61 38 -63 48 -5 23 33 36 77 26 35
-8 60 6 43 23 -15 15 -97 19 -121 6z"/>
<path d="M11692 3719 c-35 -10 -39 -36 -6 -32 81 10 103 2 104 -39 0 -12 -12
-19 -47 -24 -60 -8 -100 -28 -108 -53 -9 -28 4 -70 25 -81 29 -15 92 -12 112
6 16 16 18 16 24 0 3 -9 12 -16 20 -16 23 0 20 191 -3 219 -21 25 -74 34 -121
20z m98 -142 c0 -38 -27 -67 -64 -67 -39 0 -60 21 -51 49 7 22 45 39 88 40 22
1 27 -3 27 -22z"/>
<path d="M12085 3714 c-19 -10 -31 -11 -33 -5 -2 6 -10 11 -18 11 -12 0 -14
-31 -14 -175 0 -168 1 -175 20 -175 18 0 20 7 20 65 0 63 1 65 21 55 24 -13
65 -16 97 -6 31 10 55 62 55 121 0 61 -14 90 -53 110 -37 19 -57 19 -95 -1z
m79 -30 c20 -8 38 -75 30 -111 -10 -42 -33 -63 -70 -63 -43 0 -64 30 -64 90 0
75 41 108 104 84z"/>
<path d="M12337 3718 c-31 -11 -31 -35 -1 -30 71 9 104 -3 104 -38 0 -18 -35
-30 -87 -30 -31 0 -73 -42 -73 -73 0 -43 31 -69 79 -69 25 1 51 8 61 17 16 14
18 14 23 0 4 -8 13 -15 22 -15 12 0 15 15 15 84 0 45 -5 97 -10 113 -17 48
-70 64 -133 41z m99 -150 c-8 -41 -30 -58 -73 -58 -27 0 -34 5 -39 25 -10 42
15 60 90 64 27 1 28 -1 22 -31z"/>
<path d="M12616 3709 c-23 -18 -27 -18 -32 -5 -3 9 -12 16 -20 16 -11 0 -14
-24 -14 -120 0 -113 1 -120 20 -120 18 0 20 7 20 79 0 93 21 131 71 131 22 0
29 5 29 20 0 27 -39 27 -74 -1z"/>
<path d="M12780 3722 c-14 -5 -26 -16 -28 -26 -3 -16 1 -17 30 -10 18 4 42 7
53 6 20 -1 45 -27 45 -48 0 -12 -43 -24 -85 -24 -12 0 -34 -9 -49 -21 -32 -25
-36 -77 -7 -103 25 -23 84 -23 116 -2 22 14 25 15 25 1 0 -8 7 -15 15 -15 12
0 15 18 15 103 0 89 -3 106 -19 121 -22 20 -75 28 -111 18z m93 -129 c2 -5 0
-23 -5 -40 -9 -34 -35 -48 -79 -41 -27 3 -38 40 -19 63 16 20 94 33 103 18z"/>
<path d="M13152 3717 c-74 -43 -80 -175 -9 -222 42 -27 147 -20 147 10 0 10
-12 12 -52 8 -58 -6 -90 11 -103 55 -6 22 -5 22 81 22 l87 0 -6 42 c-3 24 -15
51 -29 65 -29 28 -84 38 -116 20z m92 -49 c9 -12 16 -26 16 -30 0 -5 -29 -8
-65 -8 -67 0 -73 7 -42 48 16 21 74 15 91 -10z"/>
<path d="M13428 3715 c-17 -9 -29 -11 -33 -5 -3 5 -13 10 -21 10 -11 0 -14
-22 -14 -120 0 -113 1 -120 20 -120 18 0 20 7 20 83 0 103 13 127 71 127 50 0
59 -20 59 -131 0 -74 1 -79 21 -79 21 0 22 3 17 101 -4 82 -9 104 -25 120 -26
26 -81 33 -115 14z"/>
<path d="M14022 3719 c-35 -10 -39 -36 -6 -32 81 10 103 2 104 -39 0 -12 -12
-19 -47 -24 -60 -8 -100 -28 -108 -53 -9 -28 4 -70 25 -81 29 -15 92 -12 112
6 16 16 18 16 24 0 3 -9 12 -16 20 -16 23 0 20 191 -3 219 -21 25 -74 34 -121
20z m98 -142 c0 -38 -27 -67 -64 -67 -39 0 -60 21 -51 49 7 22 45 39 88 40 22
1 27 -3 27 -22z"/>
<path d="M14296 3709 c-21 -17 -26 -18 -26 -5 0 9 -8 16 -20 16 -19 0 -20 -7
-20 -120 0 -113 1 -120 20 -120 18 0 20 7 20 79 0 93 21 131 71 131 22 0 29 5
29 20 0 27 -39 27 -74 -1z"/>
<path d="M5950 3600 c0 -100 3 -120 15 -120 13 0 15 20 15 120 0 100 -2 120
-15 120 -12 0 -15 -20 -15 -120z"/>
<path d="M6982 3621 c4 -121 16 -141 86 -141 28 0 52 6 64 17 17 15 18 15 18
0 0 -10 8 -17 20 -17 19 0 20 7 20 120 0 111 -1 120 -19 120 -17 0 -19 -9 -23
-91 -3 -102 -14 -119 -75 -119 -44 0 -53 21 -53 124 0 81 -1 86 -21 86 -20 0
-21 -4 -17 -99z"/>
<path d="M10400 3617 c0 -89 3 -106 19 -121 23 -21 88 -24 122 -6 17 10 24 10
27 1 2 -6 10 -11 18 -11 11 0 14 23 14 120 0 113 -1 120 -20 120 -18 0 -20 -7
-20 -83 0 -99 -14 -127 -63 -127 -56 0 -62 10 -65 115 -3 73 -7 95 -18 95 -11
0 -14 -21 -14 -103z"/>
<path d="M11160 3600 c0 -113 1 -120 20 -120 19 0 20 7 20 120 0 113 -1 120
-20 120 -19 0 -20 -7 -20 -120z"/>
<path d="M13626 3653 c14 -37 35 -92 46 -120 15 -42 24 -53 42 -53 19 0 28 16
68 120 43 115 44 120 24 120 -18 0 -27 -15 -57 -101 l-35 -101 -36 98 c-28 80
-39 100 -57 102 l-21 3 26 -68z"/>
<path d="M13870 3600 c0 -100 3 -120 15 -120 13 0 15 20 15 120 0 100 -2 120
-15 120 -12 0 -15 -20 -15 -120z"/>
<path d="M8597 3194 c-4 -4 -7 -83 -7 -176 0 -143 2 -168 15 -168 8 0 15 7 15
15 0 14 3 14 24 0 27 -18 68 -22 104 -11 31 10 55 62 55 121 0 61 -14 90 -53
110 -36 19 -57 19 -92 1 l-27 -14 -3 61 c-3 56 -14 78 -31 61z m154 -156 c7
-13 13 -44 13 -70 0 -59 -23 -88 -70 -88 -43 0 -64 30 -64 90 0 63 21 90 70
90 30 0 42 -5 51 -22z"/>
<path d="M7365 3091 c-79 -33 -88 -192 -14 -232 22 -11 112 -15 129 -4 6 3 10
12 10 20 0 10 -12 12 -54 8 -46 -5 -57 -2 -75 16 -11 11 -21 30 -21 41 0 18 7
20 80 20 l80 0 0 36 c0 46 -14 70 -50 89 -32 16 -55 18 -85 6z m83 -44 c6 -5
12 -18 12 -28 0 -17 -8 -19 -60 -19 -64 0 -77 12 -42 42 31 28 59 29 90 5z"/>
<path d="M7746 3079 c-21 -17 -26 -18 -26 -5 0 9 -8 16 -20 16 -19 0 -20 -7
-20 -120 0 -113 1 -120 20 -120 18 0 20 7 20 79 0 93 21 131 71 131 22 0 29 5
29 20 0 27 -39 27 -74 -1z"/>
<path d="M7921 3087 c-42 -21 -63 -60 -63 -116 0 -86 38 -123 123 -123 54 1
69 7 69 27 0 10 -12 12 -54 8 -46 -5 -57 -2 -75 16 -11 11 -21 30 -21 41 0 18
7 20 80 20 l80 0 0 30 c0 42 -20 79 -51 96 -34 17 -57 18 -88 1z m87 -45 c25
-32 15 -42 -48 -42 -41 0 -60 4 -60 13 0 20 14 35 40 45 29 11 50 6 68 -16z"/>
<path d="M8175 3091 c-45 -19 -60 -49 -60 -122 0 -56 4 -72 21 -89 38 -39 135
-44 142 -8 2 13 -5 15 -41 11 -61 -7 -87 18 -87 85 0 70 20 94 78 91 36 -3 48
0 50 13 5 24 -60 36 -103 19z"/>
<path d="M8391 3087 c-42 -21 -63 -60 -63 -116 0 -86 38 -123 123 -123 54 1
69 7 69 27 0 10 -12 12 -54 8 -46 -5 -57 -2 -75 16 -11 11 -21 30 -21 41 0 18
7 20 80 20 l80 0 0 30 c0 42 -20 79 -51 96 -34 17 -57 18 -88 1z m87 -45 c25
-32 15 -42 -48 -42 -41 0 -60 4 -60 13 0 20 14 35 40 45 29 11 50 6 68 -16z"/>
<path d="M8921 3087 c-42 -21 -63 -60 -63 -116 0 -86 38 -123 123 -123 54 1
69 7 69 27 0 10 -12 12 -54 8 -46 -5 -57 -2 -75 16 -11 11 -21 30 -21 41 0 18
7 20 80 20 l80 0 0 30 c0 42 -20 79 -51 96 -34 17 -57 18 -88 1z m87 -45 c25
-32 15 -42 -48 -42 -41 0 -60 4 -60 13 0 20 14 35 40 45 29 11 50 6 68 -16z"/>
<path d="M9186 3079 c-21 -17 -26 -18 -26 -5 0 9 -8 16 -20 16 -19 0 -20 -7
-20 -120 0 -113 1 -120 20 -120 18 0 20 7 20 79 0 93 21 131 71 131 22 0 29 5
29 20 0 27 -39 27 -74 -1z"/>
<path d="M9487 3080 c-22 -18 -27 -19 -27 -6 0 9 -7 16 -15 16 -12 0 -15 -20
-15 -120 0 -95 3 -120 14 -120 10 0 15 22 18 89 5 100 15 121 62 121 49 0 56
-14 56 -117 0 -86 1 -93 20 -93 19 0 20 7 20 89 0 105 11 124 69 119 l36 -3 3
-102 c2 -95 4 -103 22 -103 19 0 20 7 20 104 0 102 -1 105 -27 126 -31 25 -85
22 -112 -4 -13 -14 -17 -14 -32 0 -29 26 -81 28 -112 4z"/>
<path d="M9901 3087 c-42 -21 -63 -60 -63 -116 0 -86 38 -123 123 -123 54 1
69 7 69 27 0 10 -12 12 -54 8 -46 -5 -57 -2 -75 16 -11 11 -21 30 -21 41 0 18
7 20 80 20 l80 0 0 30 c0 42 -20 79 -51 96 -34 17 -57 18 -88 1z m87 -45 c25
-32 15 -42 -48 -42 -41 0 -60 4 -60 13 0 20 14 35 40 45 29 11 50 6 68 -16z"/>
<path d="M10175 3088 c-11 -6 -23 -16 -27 -22 -5 -7 -8 -4 -8 7 0 10 -8 17
-20 17 -19 0 -20 -7 -20 -120 0 -113 1 -120 20 -120 18 0 20 7 20 78 0 100 13
126 65 130 56 5 65 -13 65 -120 0 -81 2 -88 20 -88 19 0 20 7 20 90 0 49 -5
100 -11 113 -19 42 -81 59 -124 35z"/>
<path d="M10402 3085 c-30 -13 -33 -18 -30 -52 3 -35 7 -40 63 -69 96 -49 82
-96 -26 -81 -29 4 -39 2 -39 -8 0 -21 17 -27 72 -27 38 0 55 5 74 23 47 44 27
82 -66 125 -37 17 -51 29 -48 41 4 21 43 32 86 22 18 -4 35 -3 38 3 19 30 -72
47 -124 23z"/>
<path d="M10640 3092 c-14 -5 -26 -16 -28 -26 -3 -16 1 -17 30 -10 18 4 42 7
53 6 20 -1 45 -27 45 -48 0 -12 -43 -24 -85 -24 -12 0 -34 -9 -49 -21 -32 -25
-36 -77 -7 -103 25 -23 84 -23 116 -2 22 14 25 15 25 1 0 -8 7 -15 15 -15 12
0 15 18 15 103 0 89 -3 106 -19 121 -22 20 -75 28 -111 18z m93 -129 c2 -5 0
-23 -5 -40 -9 -34 -35 -48 -79 -41 -27 3 -38 40 -19 63 16 20 94 33 103 18z"/>
<path d="M10883 3090 c-45 -19 -58 -95 -24 -129 17 -17 18 -21 4 -32 -9 -8
-13 -23 -10 -39 4 -19 0 -29 -14 -38 -29 -18 -25 -66 7 -91 53 -42 172 -19
191 35 21 61 -14 94 -97 94 -48 0 -51 2 -48 23 2 18 11 23 47 28 57 7 85 39
77 87 -4 28 -2 35 14 39 30 8 24 23 -9 23 -15 0 -48 2 -72 5 -24 3 -54 1 -66
-5z m78 -30 c20 -11 26 -54 10 -79 -11 -17 -67 -19 -83 -3 -14 14 -13 58 2 77
14 17 43 19 71 5z m47 -230 c7 -40 -62 -71 -122 -56 -20 5 -26 13 -26 35 0 15
3 31 7 35 4 4 37 6 72 4 49 -2 67 -7 69 -18z"/>
<path d="M11151 3087 c-42 -21 -63 -60 -63 -116 0 -86 38 -123 123 -123 54 1
69 7 69 27 0 10 -12 12 -54 8 -46 -5 -57 -2 -75 16 -11 11 -21 30 -21 41 0 18
7 20 80 20 l80 0 0 30 c0 42 -20 79 -51 96 -34 17 -57 18 -88 1z m87 -45 c25
-32 15 -42 -48 -42 -41 0 -60 4 -60 13 0 20 14 35 40 45 29 11 50 6 68 -16z"/>
<path d="M11418 3085 c-17 -9 -29 -11 -33 -5 -3 5 -13 10 -21 10 -11 0 -14
-22 -14 -120 0 -113 1 -120 20 -120 18 0 20 7 20 83 0 103 13 127 71 127 50 0
59 -20 59 -131 0 -74 1 -79 21 -79 21 0 22 3 17 101 -4 82 -9 104 -25 120 -26
26 -81 33 -115 14z"/>
<path d="M11652 3085 c-30 -13 -33 -18 -30 -52 3 -35 7 -40 63 -69 96 -49 82
-96 -26 -81 -29 4 -39 2 -39 -8 0 -21 17 -27 72 -27 38 0 55 5 74 23 47 44 27
82 -66 125 -37 17 -51 29 -48 41 4 21 43 32 86 22 18 -4 35 -3 38 3 19 30 -72
47 -124 23z"/>
<path d="M11847 2893 c-13 -12 -7 -41 10 -47 20 -8 44 19 36 40 -5 14 -35 19
-46 7z"/>
</g>
</svg>
